<mxfile host="app.diagrams.net" modified="2023-10-27T02:14:31.838Z" agent="Mozilla/5.0 (Windows NT 10.0; Win64; x64) AppleWebKit/537.36 (KHTML, like Gecko) Chrome/118.0.0.0 Safari/537.36" etag="PjNbJccoMIoj66OKQ_AX" version="22.0.8" type="onedrive">
  <diagram name="Page-1" id="HEQlofu-kgIk9H7SPE7s">
    <mxGraphModel grid="1" page="1" gridSize="10" guides="1" tooltips="1" connect="1" arrows="1" fold="1" pageScale="1" pageWidth="850" pageHeight="1100" math="0" shadow="0">
      <root>
        <mxCell id="0" />
        <mxCell id="1" parent="0" />
        <mxCell id="g7EFQU10GVxG23HX8EL0-43" style="edgeStyle=orthogonalEdgeStyle;rounded=0;orthogonalLoop=1;jettySize=auto;html=1;entryX=0.5;entryY=0;entryDx=0;entryDy=0;" edge="1" parent="1" source="g7EFQU10GVxG23HX8EL0-1" target="g7EFQU10GVxG23HX8EL0-10">
          <mxGeometry relative="1" as="geometry" />
        </mxCell>
        <mxCell id="g7EFQU10GVxG23HX8EL0-1" value="Mulai" style="rounded=1;whiteSpace=wrap;html=1;arcSize=50;" vertex="1" parent="1">
          <mxGeometry x="-1100" y="-110" width="120" height="60" as="geometry" />
        </mxCell>
        <mxCell id="g7EFQU10GVxG23HX8EL0-44" style="edgeStyle=orthogonalEdgeStyle;rounded=0;orthogonalLoop=1;jettySize=auto;html=1;" edge="1" parent="1" source="g7EFQU10GVxG23HX8EL0-10" target="g7EFQU10GVxG23HX8EL0-45">
          <mxGeometry relative="1" as="geometry">
            <mxPoint x="-1040" y="160" as="targetPoint" />
          </mxGeometry>
        </mxCell>
        <mxCell id="g7EFQU10GVxG23HX8EL0-10" value="[1] Login&lt;br&gt;[2] Registrasi&lt;br&gt;[3] Exit" style="shape=parallelogram;perimeter=parallelogramPerimeter;whiteSpace=wrap;html=1;fixedSize=1;" vertex="1" parent="1">
          <mxGeometry x="-1100" y="10" width="120" height="60" as="geometry" />
        </mxCell>
        <mxCell id="g7EFQU10GVxG23HX8EL0-50" style="edgeStyle=orthogonalEdgeStyle;rounded=0;orthogonalLoop=1;jettySize=auto;html=1;entryX=0.5;entryY=0;entryDx=0;entryDy=0;" edge="1" parent="1" source="g7EFQU10GVxG23HX8EL0-45" target="g7EFQU10GVxG23HX8EL0-49">
          <mxGeometry relative="1" as="geometry" />
        </mxCell>
        <mxCell id="g7EFQU10GVxG23HX8EL0-45" value="Pilih" style="shape=parallelogram;perimeter=parallelogramPerimeter;whiteSpace=wrap;html=1;fixedSize=1;" vertex="1" parent="1">
          <mxGeometry x="-1100" y="150" width="120" height="60" as="geometry" />
        </mxCell>
        <mxCell id="g7EFQU10GVxG23HX8EL0-47" value="" style="endArrow=classic;html=1;rounded=0;" edge="1" parent="1">
          <mxGeometry width="50" height="50" relative="1" as="geometry">
            <mxPoint x="-1120" y="170" as="sourcePoint" />
            <mxPoint x="-1070" y="170" as="targetPoint" />
          </mxGeometry>
        </mxCell>
        <mxCell id="g7EFQU10GVxG23HX8EL0-48" value="" style="endArrow=classic;html=1;rounded=0;" edge="1" parent="1">
          <mxGeometry width="50" height="50" relative="1" as="geometry">
            <mxPoint x="-1020" y="60" as="sourcePoint" />
            <mxPoint x="-970" y="60" as="targetPoint" />
          </mxGeometry>
        </mxCell>
        <mxCell id="g7EFQU10GVxG23HX8EL0-53" style="edgeStyle=orthogonalEdgeStyle;rounded=0;orthogonalLoop=1;jettySize=auto;html=1;entryX=0.5;entryY=0;entryDx=0;entryDy=0;" edge="1" parent="1" source="g7EFQU10GVxG23HX8EL0-49" target="g7EFQU10GVxG23HX8EL0-51">
          <mxGeometry relative="1" as="geometry" />
        </mxCell>
        <mxCell id="g7EFQU10GVxG23HX8EL0-63" value="True" style="edgeLabel;html=1;align=center;verticalAlign=middle;resizable=0;points=[];" vertex="1" connectable="0" parent="g7EFQU10GVxG23HX8EL0-53">
          <mxGeometry x="-0.2184" relative="1" as="geometry">
            <mxPoint as="offset" />
          </mxGeometry>
        </mxCell>
        <mxCell id="g7EFQU10GVxG23HX8EL0-189" style="edgeStyle=orthogonalEdgeStyle;rounded=0;orthogonalLoop=1;jettySize=auto;html=1;entryX=0.5;entryY=0;entryDx=0;entryDy=0;" edge="1" parent="1" source="g7EFQU10GVxG23HX8EL0-49" target="g7EFQU10GVxG23HX8EL0-188">
          <mxGeometry relative="1" as="geometry" />
        </mxCell>
        <mxCell id="g7EFQU10GVxG23HX8EL0-49" value="if pilih == &#39;1&#39;" style="rhombus;whiteSpace=wrap;html=1;" vertex="1" parent="1">
          <mxGeometry x="-1080" y="280" width="80" height="80" as="geometry" />
        </mxCell>
        <mxCell id="g7EFQU10GVxG23HX8EL0-55" style="edgeStyle=orthogonalEdgeStyle;rounded=0;orthogonalLoop=1;jettySize=auto;html=1;entryX=0.5;entryY=0;entryDx=0;entryDy=0;" edge="1" parent="1" source="g7EFQU10GVxG23HX8EL0-51" target="g7EFQU10GVxG23HX8EL0-54">
          <mxGeometry relative="1" as="geometry" />
        </mxCell>
        <mxCell id="g7EFQU10GVxG23HX8EL0-51" value="masukan user name dan password" style="shape=parallelogram;perimeter=parallelogramPerimeter;whiteSpace=wrap;html=1;fixedSize=1;" vertex="1" parent="1">
          <mxGeometry x="80" y="480" width="220" height="60" as="geometry" />
        </mxCell>
        <mxCell id="g7EFQU10GVxG23HX8EL0-52" value="" style="endArrow=classic;html=1;rounded=0;" edge="1" parent="1">
          <mxGeometry width="50" height="50" relative="1" as="geometry">
            <mxPoint x="70" y="490" as="sourcePoint" />
            <mxPoint x="120" y="490" as="targetPoint" />
          </mxGeometry>
        </mxCell>
        <mxCell id="g7EFQU10GVxG23HX8EL0-54" value="Mengecek apakah user name dan password" style="rounded=0;whiteSpace=wrap;html=1;" vertex="1" parent="1">
          <mxGeometry x="130" y="610" width="120" height="60" as="geometry" />
        </mxCell>
        <mxCell id="g7EFQU10GVxG23HX8EL0-62" style="edgeStyle=orthogonalEdgeStyle;rounded=0;orthogonalLoop=1;jettySize=auto;html=1;entryX=0.5;entryY=0;entryDx=0;entryDy=0;" edge="1" parent="1" source="g7EFQU10GVxG23HX8EL0-56" target="g7EFQU10GVxG23HX8EL0-60">
          <mxGeometry relative="1" as="geometry" />
        </mxCell>
        <mxCell id="g7EFQU10GVxG23HX8EL0-56" value="Database" style="shape=cylinder3;whiteSpace=wrap;html=1;boundedLbl=1;backgroundOutline=1;size=15;" vertex="1" parent="1">
          <mxGeometry x="160" y="740" width="60" height="80" as="geometry" />
        </mxCell>
        <mxCell id="g7EFQU10GVxG23HX8EL0-57" style="edgeStyle=orthogonalEdgeStyle;rounded=0;orthogonalLoop=1;jettySize=auto;html=1;entryX=0.5;entryY=0;entryDx=0;entryDy=0;entryPerimeter=0;" edge="1" parent="1" source="g7EFQU10GVxG23HX8EL0-54" target="g7EFQU10GVxG23HX8EL0-56">
          <mxGeometry relative="1" as="geometry" />
        </mxCell>
        <mxCell id="g7EFQU10GVxG23HX8EL0-65" style="edgeStyle=orthogonalEdgeStyle;rounded=0;orthogonalLoop=1;jettySize=auto;html=1;entryX=0.5;entryY=0;entryDx=0;entryDy=0;" edge="1" parent="1" source="g7EFQU10GVxG23HX8EL0-60" target="g7EFQU10GVxG23HX8EL0-64">
          <mxGeometry relative="1" as="geometry" />
        </mxCell>
        <mxCell id="g7EFQU10GVxG23HX8EL0-67" value="True" style="edgeLabel;html=1;align=center;verticalAlign=middle;resizable=0;points=[];" vertex="1" connectable="0" parent="g7EFQU10GVxG23HX8EL0-65">
          <mxGeometry x="-0.0922" relative="1" as="geometry">
            <mxPoint as="offset" />
          </mxGeometry>
        </mxCell>
        <mxCell id="g7EFQU10GVxG23HX8EL0-121" style="edgeStyle=orthogonalEdgeStyle;rounded=0;orthogonalLoop=1;jettySize=auto;html=1;entryX=0.5;entryY=0;entryDx=0;entryDy=0;" edge="1" parent="1" source="g7EFQU10GVxG23HX8EL0-60" target="g7EFQU10GVxG23HX8EL0-120">
          <mxGeometry relative="1" as="geometry" />
        </mxCell>
        <mxCell id="g7EFQU10GVxG23HX8EL0-122" value="False" style="edgeLabel;html=1;align=center;verticalAlign=middle;resizable=0;points=[];" vertex="1" connectable="0" parent="g7EFQU10GVxG23HX8EL0-121">
          <mxGeometry x="-0.296" y="-1" relative="1" as="geometry">
            <mxPoint as="offset" />
          </mxGeometry>
        </mxCell>
        <mxCell id="g7EFQU10GVxG23HX8EL0-60" value="if&amp;nbsp; == &#39;user&#39;" style="rhombus;whiteSpace=wrap;html=1;" vertex="1" parent="1">
          <mxGeometry x="150" y="870" width="80" height="80" as="geometry" />
        </mxCell>
        <mxCell id="g7EFQU10GVxG23HX8EL0-71" style="edgeStyle=orthogonalEdgeStyle;rounded=0;orthogonalLoop=1;jettySize=auto;html=1;" edge="1" parent="1" source="g7EFQU10GVxG23HX8EL0-64" target="g7EFQU10GVxG23HX8EL0-70">
          <mxGeometry relative="1" as="geometry" />
        </mxCell>
        <mxCell id="g7EFQU10GVxG23HX8EL0-64" value="[1] Kirim Barang&lt;br&gt;[2] Cek Kode Resi&lt;br&gt;[3] Cek Resi Barang&lt;br&gt;[4] Logout" style="shape=parallelogram;perimeter=parallelogramPerimeter;whiteSpace=wrap;html=1;fixedSize=1;" vertex="1" parent="1">
          <mxGeometry x="320" y="930" width="160" height="110" as="geometry" />
        </mxCell>
        <mxCell id="g7EFQU10GVxG23HX8EL0-68" value="" style="endArrow=classic;html=1;rounded=0;" edge="1" parent="1">
          <mxGeometry width="50" height="50" relative="1" as="geometry">
            <mxPoint x="430" y="1020" as="sourcePoint" />
            <mxPoint x="480" y="1020" as="targetPoint" />
          </mxGeometry>
        </mxCell>
        <mxCell id="g7EFQU10GVxG23HX8EL0-73" style="edgeStyle=orthogonalEdgeStyle;rounded=0;orthogonalLoop=1;jettySize=auto;html=1;" edge="1" parent="1" source="g7EFQU10GVxG23HX8EL0-70" target="g7EFQU10GVxG23HX8EL0-72">
          <mxGeometry relative="1" as="geometry" />
        </mxCell>
        <mxCell id="g7EFQU10GVxG23HX8EL0-70" value="pilih" style="shape=parallelogram;perimeter=parallelogramPerimeter;whiteSpace=wrap;html=1;fixedSize=1;" vertex="1" parent="1">
          <mxGeometry x="340" y="1110" width="120" height="60" as="geometry" />
        </mxCell>
        <mxCell id="g7EFQU10GVxG23HX8EL0-75" style="edgeStyle=orthogonalEdgeStyle;rounded=0;orthogonalLoop=1;jettySize=auto;html=1;entryX=0.5;entryY=0;entryDx=0;entryDy=0;" edge="1" parent="1" source="g7EFQU10GVxG23HX8EL0-72" target="g7EFQU10GVxG23HX8EL0-74">
          <mxGeometry relative="1" as="geometry" />
        </mxCell>
        <mxCell id="g7EFQU10GVxG23HX8EL0-76" value="True" style="edgeLabel;html=1;align=center;verticalAlign=middle;resizable=0;points=[];" vertex="1" connectable="0" parent="g7EFQU10GVxG23HX8EL0-75">
          <mxGeometry x="-0.1787" y="1" relative="1" as="geometry">
            <mxPoint as="offset" />
          </mxGeometry>
        </mxCell>
        <mxCell id="g7EFQU10GVxG23HX8EL0-84" style="edgeStyle=orthogonalEdgeStyle;rounded=0;orthogonalLoop=1;jettySize=auto;html=1;" edge="1" parent="1" source="g7EFQU10GVxG23HX8EL0-72" target="g7EFQU10GVxG23HX8EL0-83">
          <mxGeometry relative="1" as="geometry" />
        </mxCell>
        <mxCell id="g7EFQU10GVxG23HX8EL0-85" value="False" style="edgeLabel;html=1;align=center;verticalAlign=middle;resizable=0;points=[];" vertex="1" connectable="0" parent="g7EFQU10GVxG23HX8EL0-84">
          <mxGeometry x="-0.4515" y="-3" relative="1" as="geometry">
            <mxPoint y="3" as="offset" />
          </mxGeometry>
        </mxCell>
        <mxCell id="g7EFQU10GVxG23HX8EL0-72" value="if pilih == &#39;1&#39;" style="rhombus;whiteSpace=wrap;html=1;" vertex="1" parent="1">
          <mxGeometry x="360" y="1260" width="80" height="80" as="geometry" />
        </mxCell>
        <mxCell id="g7EFQU10GVxG23HX8EL0-78" style="edgeStyle=orthogonalEdgeStyle;rounded=0;orthogonalLoop=1;jettySize=auto;html=1;" edge="1" parent="1" source="g7EFQU10GVxG23HX8EL0-74" target="g7EFQU10GVxG23HX8EL0-77">
          <mxGeometry relative="1" as="geometry" />
        </mxCell>
        <mxCell id="g7EFQU10GVxG23HX8EL0-74" value="nama barang&lt;br&gt;alamat pengirim&amp;nbsp;&lt;br&gt;alamat penerima" style="shape=parallelogram;perimeter=parallelogramPerimeter;whiteSpace=wrap;html=1;fixedSize=1;" vertex="1" parent="1">
          <mxGeometry x="500" y="1330" width="140" height="80" as="geometry" />
        </mxCell>
        <mxCell id="g7EFQU10GVxG23HX8EL0-80" style="edgeStyle=orthogonalEdgeStyle;rounded=0;orthogonalLoop=1;jettySize=auto;html=1;" edge="1" parent="1" source="g7EFQU10GVxG23HX8EL0-77" target="g7EFQU10GVxG23HX8EL0-79">
          <mxGeometry relative="1" as="geometry" />
        </mxCell>
        <mxCell id="g7EFQU10GVxG23HX8EL0-77" value="kode resi random" style="rounded=0;whiteSpace=wrap;html=1;" vertex="1" parent="1">
          <mxGeometry x="510" y="1460" width="120" height="60" as="geometry" />
        </mxCell>
        <mxCell id="g7EFQU10GVxG23HX8EL0-79" value="di simpan ke database" style="rounded=0;whiteSpace=wrap;html=1;" vertex="1" parent="1">
          <mxGeometry x="510" y="1590" width="120" height="60" as="geometry" />
        </mxCell>
        <mxCell id="g7EFQU10GVxG23HX8EL0-220" style="edgeStyle=orthogonalEdgeStyle;rounded=0;orthogonalLoop=1;jettySize=auto;html=1;" edge="1" parent="1" source="g7EFQU10GVxG23HX8EL0-81">
          <mxGeometry relative="1" as="geometry">
            <mxPoint x="290" y="2280" as="targetPoint" />
            <Array as="points">
              <mxPoint x="570" y="2280" />
            </Array>
          </mxGeometry>
        </mxCell>
        <mxCell id="g7EFQU10GVxG23HX8EL0-81" value="Database" style="shape=cylinder3;whiteSpace=wrap;html=1;boundedLbl=1;backgroundOutline=1;size=15;" vertex="1" parent="1">
          <mxGeometry x="540" y="1720" width="60" height="80" as="geometry" />
        </mxCell>
        <mxCell id="g7EFQU10GVxG23HX8EL0-82" style="edgeStyle=orthogonalEdgeStyle;rounded=0;orthogonalLoop=1;jettySize=auto;html=1;entryX=0.5;entryY=0;entryDx=0;entryDy=0;entryPerimeter=0;" edge="1" parent="1" source="g7EFQU10GVxG23HX8EL0-79" target="g7EFQU10GVxG23HX8EL0-81">
          <mxGeometry relative="1" as="geometry" />
        </mxCell>
        <mxCell id="g7EFQU10GVxG23HX8EL0-93" style="edgeStyle=orthogonalEdgeStyle;rounded=0;orthogonalLoop=1;jettySize=auto;html=1;entryX=0.5;entryY=0;entryDx=0;entryDy=0;" edge="1" parent="1" source="g7EFQU10GVxG23HX8EL0-83" target="g7EFQU10GVxG23HX8EL0-92">
          <mxGeometry relative="1" as="geometry" />
        </mxCell>
        <mxCell id="g7EFQU10GVxG23HX8EL0-96" value="True" style="edgeLabel;html=1;align=center;verticalAlign=middle;resizable=0;points=[];" vertex="1" connectable="0" parent="g7EFQU10GVxG23HX8EL0-93">
          <mxGeometry x="-0.21" relative="1" as="geometry">
            <mxPoint as="offset" />
          </mxGeometry>
        </mxCell>
        <mxCell id="g7EFQU10GVxG23HX8EL0-101" style="edgeStyle=orthogonalEdgeStyle;rounded=0;orthogonalLoop=1;jettySize=auto;html=1;" edge="1" parent="1" source="g7EFQU10GVxG23HX8EL0-83" target="g7EFQU10GVxG23HX8EL0-100">
          <mxGeometry relative="1" as="geometry" />
        </mxCell>
        <mxCell id="g7EFQU10GVxG23HX8EL0-103" value="False" style="edgeLabel;html=1;align=center;verticalAlign=middle;resizable=0;points=[];" vertex="1" connectable="0" parent="g7EFQU10GVxG23HX8EL0-101">
          <mxGeometry x="-0.3082" y="-3" relative="1" as="geometry">
            <mxPoint as="offset" />
          </mxGeometry>
        </mxCell>
        <mxCell id="g7EFQU10GVxG23HX8EL0-83" value="if pilih == &#39;2&#39;" style="rhombus;whiteSpace=wrap;html=1;" vertex="1" parent="1">
          <mxGeometry x="80" y="1370" width="80" height="80" as="geometry" />
        </mxCell>
        <mxCell id="g7EFQU10GVxG23HX8EL0-86" value="" style="endArrow=classic;html=1;rounded=0;" edge="1" parent="1">
          <mxGeometry width="50" height="50" relative="1" as="geometry">
            <mxPoint x="490" y="1340" as="sourcePoint" />
            <mxPoint x="550" y="1340" as="targetPoint" />
          </mxGeometry>
        </mxCell>
        <mxCell id="g7EFQU10GVxG23HX8EL0-95" style="edgeStyle=orthogonalEdgeStyle;rounded=0;orthogonalLoop=1;jettySize=auto;html=1;" edge="1" parent="1" source="g7EFQU10GVxG23HX8EL0-92" target="g7EFQU10GVxG23HX8EL0-94">
          <mxGeometry relative="1" as="geometry" />
        </mxCell>
        <mxCell id="g7EFQU10GVxG23HX8EL0-92" value="Membaca resi apa saja yang user input kan" style="rounded=0;whiteSpace=wrap;html=1;" vertex="1" parent="1">
          <mxGeometry x="230" y="1450" width="120" height="60" as="geometry" />
        </mxCell>
        <mxCell id="g7EFQU10GVxG23HX8EL0-98" style="edgeStyle=orthogonalEdgeStyle;rounded=0;orthogonalLoop=1;jettySize=auto;html=1;entryX=0.5;entryY=0;entryDx=0;entryDy=0;" edge="1" parent="1" source="g7EFQU10GVxG23HX8EL0-94" target="g7EFQU10GVxG23HX8EL0-97">
          <mxGeometry relative="1" as="geometry" />
        </mxCell>
        <mxCell id="g7EFQU10GVxG23HX8EL0-94" value="Database" style="shape=cylinder3;whiteSpace=wrap;html=1;boundedLbl=1;backgroundOutline=1;size=15;" vertex="1" parent="1">
          <mxGeometry x="260" y="1570" width="60" height="80" as="geometry" />
        </mxCell>
        <mxCell id="g7EFQU10GVxG23HX8EL0-219" style="edgeStyle=orthogonalEdgeStyle;rounded=0;orthogonalLoop=1;jettySize=auto;html=1;" edge="1" parent="1" source="g7EFQU10GVxG23HX8EL0-97">
          <mxGeometry relative="1" as="geometry">
            <mxPoint x="80" y="2300" as="targetPoint" />
            <Array as="points">
              <mxPoint x="290" y="2300" />
              <mxPoint x="200" y="2300" />
            </Array>
          </mxGeometry>
        </mxCell>
        <mxCell id="g7EFQU10GVxG23HX8EL0-97" value="print semua resi yang user punya" style="shape=parallelogram;perimeter=parallelogramPerimeter;whiteSpace=wrap;html=1;fixedSize=1;" vertex="1" parent="1">
          <mxGeometry x="175" y="1690" width="230" height="100" as="geometry" />
        </mxCell>
        <mxCell id="g7EFQU10GVxG23HX8EL0-99" value="" style="endArrow=classic;html=1;rounded=0;" edge="1" parent="1">
          <mxGeometry width="50" height="50" relative="1" as="geometry">
            <mxPoint x="350" y="1780" as="sourcePoint" />
            <mxPoint x="420" y="1780" as="targetPoint" />
          </mxGeometry>
        </mxCell>
        <mxCell id="g7EFQU10GVxG23HX8EL0-112" style="edgeStyle=orthogonalEdgeStyle;rounded=0;orthogonalLoop=1;jettySize=auto;html=1;entryX=0.5;entryY=0;entryDx=0;entryDy=0;exitX=1;exitY=0.5;exitDx=0;exitDy=0;" edge="1" parent="1" source="g7EFQU10GVxG23HX8EL0-100" target="g7EFQU10GVxG23HX8EL0-111">
          <mxGeometry relative="1" as="geometry" />
        </mxCell>
        <mxCell id="g7EFQU10GVxG23HX8EL0-113" value="True" style="edgeLabel;html=1;align=center;verticalAlign=middle;resizable=0;points=[];" vertex="1" connectable="0" parent="g7EFQU10GVxG23HX8EL0-112">
          <mxGeometry x="-0.3692" y="-1" relative="1" as="geometry">
            <mxPoint y="-2" as="offset" />
          </mxGeometry>
        </mxCell>
        <mxCell id="g7EFQU10GVxG23HX8EL0-125" style="edgeStyle=orthogonalEdgeStyle;rounded=0;orthogonalLoop=1;jettySize=auto;html=1;entryX=0.5;entryY=0;entryDx=0;entryDy=0;" edge="1" parent="1" source="g7EFQU10GVxG23HX8EL0-100" target="g7EFQU10GVxG23HX8EL0-124">
          <mxGeometry relative="1" as="geometry" />
        </mxCell>
        <mxCell id="g7EFQU10GVxG23HX8EL0-100" value="if pilih ==&amp;nbsp; &#39;3&#39;" style="rhombus;whiteSpace=wrap;html=1;" vertex="1" parent="1">
          <mxGeometry x="-80" y="1460" width="80" height="80" as="geometry" />
        </mxCell>
        <mxCell id="g7EFQU10GVxG23HX8EL0-105" value="melihat statis barang&lt;br&gt;di dalam data" style="rounded=0;whiteSpace=wrap;html=1;" vertex="1" parent="1">
          <mxGeometry x="20" y="1670" width="120" height="60" as="geometry" />
        </mxCell>
        <mxCell id="g7EFQU10GVxG23HX8EL0-116" value="" style="edgeStyle=orthogonalEdgeStyle;rounded=0;orthogonalLoop=1;jettySize=auto;html=1;" edge="1" parent="1" source="g7EFQU10GVxG23HX8EL0-108" target="g7EFQU10GVxG23HX8EL0-110">
          <mxGeometry relative="1" as="geometry" />
        </mxCell>
        <mxCell id="g7EFQU10GVxG23HX8EL0-108" value="Database" style="shape=cylinder3;whiteSpace=wrap;html=1;boundedLbl=1;backgroundOutline=1;size=15;" vertex="1" parent="1">
          <mxGeometry x="50" y="1770" width="60" height="80" as="geometry" />
        </mxCell>
        <mxCell id="g7EFQU10GVxG23HX8EL0-218" style="edgeStyle=orthogonalEdgeStyle;rounded=0;orthogonalLoop=1;jettySize=auto;html=1;" edge="1" parent="1" source="g7EFQU10GVxG23HX8EL0-110">
          <mxGeometry relative="1" as="geometry">
            <mxPoint x="-80" y="2350" as="targetPoint" />
            <Array as="points">
              <mxPoint x="80" y="2350" />
            </Array>
          </mxGeometry>
        </mxCell>
        <mxCell id="g7EFQU10GVxG23HX8EL0-110" value="print status pengirim&lt;br&gt;alamat pengirim&lt;br&gt;alamat penerima&lt;br&gt;koder resi" style="shape=parallelogram;perimeter=parallelogramPerimeter;whiteSpace=wrap;html=1;fixedSize=1;" vertex="1" parent="1">
          <mxGeometry x="-5" y="1880" width="170" height="70" as="geometry" />
        </mxCell>
        <mxCell id="g7EFQU10GVxG23HX8EL0-114" style="edgeStyle=orthogonalEdgeStyle;rounded=0;orthogonalLoop=1;jettySize=auto;html=1;entryX=0.5;entryY=0;entryDx=0;entryDy=0;" edge="1" parent="1" source="g7EFQU10GVxG23HX8EL0-111" target="g7EFQU10GVxG23HX8EL0-105">
          <mxGeometry relative="1" as="geometry" />
        </mxCell>
        <mxCell id="g7EFQU10GVxG23HX8EL0-111" value="input resi mana yang ingin di cek" style="shape=parallelogram;perimeter=parallelogramPerimeter;whiteSpace=wrap;html=1;fixedSize=1;" vertex="1" parent="1">
          <mxGeometry x="-30" y="1550" width="220" height="70" as="geometry" />
        </mxCell>
        <mxCell id="g7EFQU10GVxG23HX8EL0-115" style="edgeStyle=orthogonalEdgeStyle;rounded=0;orthogonalLoop=1;jettySize=auto;html=1;entryX=0.5;entryY=0;entryDx=0;entryDy=0;entryPerimeter=0;" edge="1" parent="1" source="g7EFQU10GVxG23HX8EL0-105" target="g7EFQU10GVxG23HX8EL0-108">
          <mxGeometry relative="1" as="geometry" />
        </mxCell>
        <mxCell id="g7EFQU10GVxG23HX8EL0-216" style="edgeStyle=orthogonalEdgeStyle;rounded=0;orthogonalLoop=1;jettySize=auto;html=1;" edge="1" parent="1" source="g7EFQU10GVxG23HX8EL0-117">
          <mxGeometry relative="1" as="geometry">
            <mxPoint x="-630" y="2420" as="targetPoint" />
            <Array as="points">
              <mxPoint x="-340" y="2420" />
            </Array>
          </mxGeometry>
        </mxCell>
        <mxCell id="g7EFQU10GVxG23HX8EL0-117" value="pilihan tidak ada" style="shape=parallelogram;perimeter=parallelogramPerimeter;whiteSpace=wrap;html=1;fixedSize=1;" vertex="1" parent="1">
          <mxGeometry x="-400" y="1640" width="120" height="60" as="geometry" />
        </mxCell>
        <mxCell id="g7EFQU10GVxG23HX8EL0-119" value="" style="endArrow=classic;html=1;rounded=0;" edge="1" parent="1">
          <mxGeometry width="50" height="50" relative="1" as="geometry">
            <mxPoint x="-330" y="1690" as="sourcePoint" />
            <mxPoint x="-260" y="1690" as="targetPoint" />
          </mxGeometry>
        </mxCell>
        <mxCell id="g7EFQU10GVxG23HX8EL0-133" style="edgeStyle=orthogonalEdgeStyle;rounded=0;orthogonalLoop=1;jettySize=auto;html=1;entryX=0.5;entryY=0;entryDx=0;entryDy=0;" edge="1" parent="1" source="g7EFQU10GVxG23HX8EL0-120" target="g7EFQU10GVxG23HX8EL0-123">
          <mxGeometry relative="1" as="geometry" />
        </mxCell>
        <mxCell id="g7EFQU10GVxG23HX8EL0-147" value="True" style="edgeLabel;html=1;align=center;verticalAlign=middle;resizable=0;points=[];" vertex="1" connectable="0" parent="g7EFQU10GVxG23HX8EL0-133">
          <mxGeometry x="-0.2826" relative="1" as="geometry">
            <mxPoint as="offset" />
          </mxGeometry>
        </mxCell>
        <mxCell id="g7EFQU10GVxG23HX8EL0-120" value="if == &#39;admin&#39;" style="rhombus;whiteSpace=wrap;html=1;" vertex="1" parent="1">
          <mxGeometry x="-1000" y="1010" width="80" height="80" as="geometry" />
        </mxCell>
        <mxCell id="g7EFQU10GVxG23HX8EL0-137" style="edgeStyle=orthogonalEdgeStyle;rounded=0;orthogonalLoop=1;jettySize=auto;html=1;" edge="1" parent="1" source="g7EFQU10GVxG23HX8EL0-123" target="g7EFQU10GVxG23HX8EL0-136">
          <mxGeometry relative="1" as="geometry" />
        </mxCell>
        <mxCell id="g7EFQU10GVxG23HX8EL0-123" value="[1]&amp;nbsp; Cek Semua&amp;nbsp; Pengiriman&lt;br&gt;[2] Ubah status&lt;br&gt;[3]&amp;nbsp; Hapus barang&lt;br&gt;[4] logout" style="shape=parallelogram;perimeter=parallelogramPerimeter;whiteSpace=wrap;html=1;fixedSize=1;" vertex="1" parent="1">
          <mxGeometry x="-880" y="1120" width="200" height="100" as="geometry" />
        </mxCell>
        <mxCell id="g7EFQU10GVxG23HX8EL0-126" style="edgeStyle=orthogonalEdgeStyle;rounded=0;orthogonalLoop=1;jettySize=auto;html=1;entryX=0.5;entryY=0;entryDx=0;entryDy=0;" edge="1" parent="1" source="g7EFQU10GVxG23HX8EL0-124" target="g7EFQU10GVxG23HX8EL0-117">
          <mxGeometry relative="1" as="geometry" />
        </mxCell>
        <mxCell id="g7EFQU10GVxG23HX8EL0-130" style="edgeStyle=orthogonalEdgeStyle;rounded=0;orthogonalLoop=1;jettySize=auto;html=1;entryX=0.5;entryY=0;entryDx=0;entryDy=0;" edge="1" parent="1" source="g7EFQU10GVxG23HX8EL0-124" target="g7EFQU10GVxG23HX8EL0-129">
          <mxGeometry relative="1" as="geometry" />
        </mxCell>
        <mxCell id="g7EFQU10GVxG23HX8EL0-131" value="True" style="edgeLabel;html=1;align=center;verticalAlign=middle;resizable=0;points=[];" vertex="1" connectable="0" parent="g7EFQU10GVxG23HX8EL0-130">
          <mxGeometry x="-0.4098" y="-1" relative="1" as="geometry">
            <mxPoint as="offset" />
          </mxGeometry>
        </mxCell>
        <mxCell id="g7EFQU10GVxG23HX8EL0-124" value="if pilih == &#39;4&#39;" style="rhombus;whiteSpace=wrap;html=1;" vertex="1" parent="1">
          <mxGeometry x="-230" y="1550" width="80" height="80" as="geometry" />
        </mxCell>
        <mxCell id="g7EFQU10GVxG23HX8EL0-217" style="edgeStyle=orthogonalEdgeStyle;rounded=0;orthogonalLoop=1;jettySize=auto;html=1;" edge="1" parent="1" source="g7EFQU10GVxG23HX8EL0-129">
          <mxGeometry relative="1" as="geometry">
            <mxPoint x="-340" y="2400" as="targetPoint" />
            <Array as="points">
              <mxPoint x="-80" y="2400" />
              <mxPoint x="-330" y="2400" />
            </Array>
          </mxGeometry>
        </mxCell>
        <mxCell id="g7EFQU10GVxG23HX8EL0-129" value="exit" style="rounded=0;whiteSpace=wrap;html=1;" vertex="1" parent="1">
          <mxGeometry x="-140" y="1640" width="120" height="60" as="geometry" />
        </mxCell>
        <mxCell id="g7EFQU10GVxG23HX8EL0-134" value="" style="endArrow=classic;html=1;rounded=0;" edge="1" parent="1">
          <mxGeometry width="50" height="50" relative="1" as="geometry">
            <mxPoint x="-730" y="1200" as="sourcePoint" />
            <mxPoint x="-660" y="1200" as="targetPoint" />
          </mxGeometry>
        </mxCell>
        <mxCell id="g7EFQU10GVxG23HX8EL0-140" style="edgeStyle=orthogonalEdgeStyle;rounded=0;orthogonalLoop=1;jettySize=auto;html=1;entryX=0.5;entryY=0;entryDx=0;entryDy=0;" edge="1" parent="1" source="g7EFQU10GVxG23HX8EL0-136" target="g7EFQU10GVxG23HX8EL0-139">
          <mxGeometry relative="1" as="geometry" />
        </mxCell>
        <mxCell id="g7EFQU10GVxG23HX8EL0-136" value="pilih" style="shape=parallelogram;perimeter=parallelogramPerimeter;whiteSpace=wrap;html=1;fixedSize=1;" vertex="1" parent="1">
          <mxGeometry x="-840" y="1310" width="120" height="60" as="geometry" />
        </mxCell>
        <mxCell id="g7EFQU10GVxG23HX8EL0-138" value="" style="endArrow=classic;html=1;rounded=0;" edge="1" parent="1">
          <mxGeometry width="50" height="50" relative="1" as="geometry">
            <mxPoint x="-870" y="1330" as="sourcePoint" />
            <mxPoint x="-810" y="1330" as="targetPoint" />
          </mxGeometry>
        </mxCell>
        <mxCell id="g7EFQU10GVxG23HX8EL0-142" style="edgeStyle=orthogonalEdgeStyle;rounded=0;orthogonalLoop=1;jettySize=auto;html=1;entryX=0.5;entryY=0;entryDx=0;entryDy=0;" edge="1" parent="1" source="g7EFQU10GVxG23HX8EL0-139" target="g7EFQU10GVxG23HX8EL0-141">
          <mxGeometry relative="1" as="geometry" />
        </mxCell>
        <mxCell id="g7EFQU10GVxG23HX8EL0-148" value="True" style="edgeLabel;html=1;align=center;verticalAlign=middle;resizable=0;points=[];" vertex="1" connectable="0" parent="g7EFQU10GVxG23HX8EL0-142">
          <mxGeometry x="-0.2453" y="2" relative="1" as="geometry">
            <mxPoint y="3" as="offset" />
          </mxGeometry>
        </mxCell>
        <mxCell id="g7EFQU10GVxG23HX8EL0-150" style="edgeStyle=orthogonalEdgeStyle;rounded=0;orthogonalLoop=1;jettySize=auto;html=1;entryX=0.5;entryY=0;entryDx=0;entryDy=0;" edge="1" parent="1" source="g7EFQU10GVxG23HX8EL0-139" target="g7EFQU10GVxG23HX8EL0-149">
          <mxGeometry relative="1" as="geometry" />
        </mxCell>
        <mxCell id="g7EFQU10GVxG23HX8EL0-151" value="False" style="edgeLabel;html=1;align=center;verticalAlign=middle;resizable=0;points=[];" vertex="1" connectable="0" parent="g7EFQU10GVxG23HX8EL0-150">
          <mxGeometry x="-0.2556" y="1" relative="1" as="geometry">
            <mxPoint as="offset" />
          </mxGeometry>
        </mxCell>
        <mxCell id="g7EFQU10GVxG23HX8EL0-139" value="if pilih == &#39;1&#39;" style="rhombus;whiteSpace=wrap;html=1;" vertex="1" parent="1">
          <mxGeometry x="-820" y="1430" width="80" height="80" as="geometry" />
        </mxCell>
        <mxCell id="g7EFQU10GVxG23HX8EL0-144" style="edgeStyle=orthogonalEdgeStyle;rounded=0;orthogonalLoop=1;jettySize=auto;html=1;" edge="1" parent="1" source="g7EFQU10GVxG23HX8EL0-141" target="g7EFQU10GVxG23HX8EL0-143">
          <mxGeometry relative="1" as="geometry" />
        </mxCell>
        <mxCell id="g7EFQU10GVxG23HX8EL0-141" value="melihat semua data resi" style="rounded=0;whiteSpace=wrap;html=1;" vertex="1" parent="1">
          <mxGeometry x="-690" y="1510" width="120" height="60" as="geometry" />
        </mxCell>
        <mxCell id="g7EFQU10GVxG23HX8EL0-146" style="edgeStyle=orthogonalEdgeStyle;rounded=0;orthogonalLoop=1;jettySize=auto;html=1;entryX=0.5;entryY=0;entryDx=0;entryDy=0;" edge="1" parent="1" source="g7EFQU10GVxG23HX8EL0-143" target="g7EFQU10GVxG23HX8EL0-145">
          <mxGeometry relative="1" as="geometry" />
        </mxCell>
        <mxCell id="g7EFQU10GVxG23HX8EL0-143" value="Database" style="shape=cylinder3;whiteSpace=wrap;html=1;boundedLbl=1;backgroundOutline=1;size=15;" vertex="1" parent="1">
          <mxGeometry x="-660" y="1620" width="60" height="80" as="geometry" />
        </mxCell>
        <mxCell id="g7EFQU10GVxG23HX8EL0-215" style="edgeStyle=orthogonalEdgeStyle;rounded=0;orthogonalLoop=1;jettySize=auto;html=1;" edge="1" parent="1" source="g7EFQU10GVxG23HX8EL0-145">
          <mxGeometry relative="1" as="geometry">
            <mxPoint x="-840" y="2430" as="targetPoint" />
            <Array as="points">
              <mxPoint x="-630" y="2430" />
            </Array>
          </mxGeometry>
        </mxCell>
        <mxCell id="g7EFQU10GVxG23HX8EL0-145" value="print semua data barang yang di input" style="shape=parallelogram;perimeter=parallelogramPerimeter;whiteSpace=wrap;html=1;fixedSize=1;" vertex="1" parent="1">
          <mxGeometry x="-745" y="1750" width="230" height="60" as="geometry" />
        </mxCell>
        <mxCell id="g7EFQU10GVxG23HX8EL0-156" style="edgeStyle=orthogonalEdgeStyle;rounded=0;orthogonalLoop=1;jettySize=auto;html=1;" edge="1" parent="1" source="g7EFQU10GVxG23HX8EL0-149" target="g7EFQU10GVxG23HX8EL0-152">
          <mxGeometry relative="1" as="geometry" />
        </mxCell>
        <mxCell id="g7EFQU10GVxG23HX8EL0-159" value="True" style="edgeLabel;html=1;align=center;verticalAlign=middle;resizable=0;points=[];" vertex="1" connectable="0" parent="g7EFQU10GVxG23HX8EL0-156">
          <mxGeometry x="-0.2909" y="1" relative="1" as="geometry">
            <mxPoint as="offset" />
          </mxGeometry>
        </mxCell>
        <mxCell id="XLnedt-Zt8pmp2AXjg6e-2" style="edgeStyle=orthogonalEdgeStyle;rounded=0;orthogonalLoop=1;jettySize=auto;html=1;entryX=0.5;entryY=0;entryDx=0;entryDy=0;" edge="1" parent="1" source="g7EFQU10GVxG23HX8EL0-149" target="XLnedt-Zt8pmp2AXjg6e-1">
          <mxGeometry relative="1" as="geometry" />
        </mxCell>
        <mxCell id="g7EFQU10GVxG23HX8EL0-149" value="if pilih == &#39;2&#39;" style="rhombus;whiteSpace=wrap;html=1;" vertex="1" parent="1">
          <mxGeometry x="-1200" y="1520" width="80" height="80" as="geometry" />
        </mxCell>
        <mxCell id="g7EFQU10GVxG23HX8EL0-161" style="edgeStyle=orthogonalEdgeStyle;rounded=0;orthogonalLoop=1;jettySize=auto;html=1;" edge="1" parent="1" source="g7EFQU10GVxG23HX8EL0-152" target="g7EFQU10GVxG23HX8EL0-160">
          <mxGeometry relative="1" as="geometry" />
        </mxCell>
        <mxCell id="g7EFQU10GVxG23HX8EL0-152" value="Input resi yang ingin di ubah status nya" style="shape=parallelogram;perimeter=parallelogramPerimeter;whiteSpace=wrap;html=1;fixedSize=1;" vertex="1" parent="1">
          <mxGeometry x="-1070" y="1610" width="180" height="80" as="geometry" />
        </mxCell>
        <mxCell id="g7EFQU10GVxG23HX8EL0-153" value="" style="endArrow=classic;html=1;rounded=0;" edge="1" parent="1">
          <mxGeometry width="50" height="50" relative="1" as="geometry">
            <mxPoint x="-1090" y="1630" as="sourcePoint" />
            <mxPoint x="-1040" y="1630" as="targetPoint" />
          </mxGeometry>
        </mxCell>
        <mxCell id="g7EFQU10GVxG23HX8EL0-165" style="edgeStyle=orthogonalEdgeStyle;rounded=0;orthogonalLoop=1;jettySize=auto;html=1;entryX=0.5;entryY=0;entryDx=0;entryDy=0;" edge="1" parent="1" source="g7EFQU10GVxG23HX8EL0-157" target="g7EFQU10GVxG23HX8EL0-163">
          <mxGeometry relative="1" as="geometry" />
        </mxCell>
        <mxCell id="g7EFQU10GVxG23HX8EL0-173" value="True" style="edgeLabel;html=1;align=center;verticalAlign=middle;resizable=0;points=[];" vertex="1" connectable="0" parent="g7EFQU10GVxG23HX8EL0-165">
          <mxGeometry x="-0.2952" relative="1" as="geometry">
            <mxPoint as="offset" />
          </mxGeometry>
        </mxCell>
        <mxCell id="g7EFQU10GVxG23HX8EL0-172" style="edgeStyle=orthogonalEdgeStyle;rounded=0;orthogonalLoop=1;jettySize=auto;html=1;entryX=0.5;entryY=0;entryDx=0;entryDy=0;" edge="1" parent="1" source="g7EFQU10GVxG23HX8EL0-157" target="g7EFQU10GVxG23HX8EL0-171">
          <mxGeometry relative="1" as="geometry" />
        </mxCell>
        <mxCell id="g7EFQU10GVxG23HX8EL0-174" value="False" style="edgeLabel;html=1;align=center;verticalAlign=middle;resizable=0;points=[];" vertex="1" connectable="0" parent="g7EFQU10GVxG23HX8EL0-172">
          <mxGeometry x="-0.335" y="1" relative="1" as="geometry">
            <mxPoint as="offset" />
          </mxGeometry>
        </mxCell>
        <mxCell id="g7EFQU10GVxG23HX8EL0-157" value="if resi == true" style="rhombus;whiteSpace=wrap;html=1;" vertex="1" parent="1">
          <mxGeometry x="-1020" y="1890" width="80" height="80" as="geometry" />
        </mxCell>
        <mxCell id="g7EFQU10GVxG23HX8EL0-162" style="edgeStyle=orthogonalEdgeStyle;rounded=0;orthogonalLoop=1;jettySize=auto;html=1;" edge="1" parent="1" source="g7EFQU10GVxG23HX8EL0-160" target="g7EFQU10GVxG23HX8EL0-157">
          <mxGeometry relative="1" as="geometry" />
        </mxCell>
        <mxCell id="g7EFQU10GVxG23HX8EL0-160" value="Database" style="shape=cylinder3;whiteSpace=wrap;html=1;boundedLbl=1;backgroundOutline=1;size=15;" vertex="1" parent="1">
          <mxGeometry x="-1010" y="1750" width="60" height="80" as="geometry" />
        </mxCell>
        <mxCell id="g7EFQU10GVxG23HX8EL0-167" style="edgeStyle=orthogonalEdgeStyle;rounded=0;orthogonalLoop=1;jettySize=auto;html=1;" edge="1" parent="1" source="g7EFQU10GVxG23HX8EL0-163" target="g7EFQU10GVxG23HX8EL0-166">
          <mxGeometry relative="1" as="geometry" />
        </mxCell>
        <mxCell id="g7EFQU10GVxG23HX8EL0-163" value="menampilkan data&amp;nbsp;&lt;br&gt;pengriman barang" style="shape=parallelogram;perimeter=parallelogramPerimeter;whiteSpace=wrap;html=1;fixedSize=1;" vertex="1" parent="1">
          <mxGeometry x="-930" y="1970" width="170" height="60" as="geometry" />
        </mxCell>
        <mxCell id="g7EFQU10GVxG23HX8EL0-208" style="edgeStyle=orthogonalEdgeStyle;rounded=0;orthogonalLoop=1;jettySize=auto;html=1;entryX=0.5;entryY=0;entryDx=0;entryDy=0;" edge="1" parent="1" source="g7EFQU10GVxG23HX8EL0-166" target="g7EFQU10GVxG23HX8EL0-207">
          <mxGeometry relative="1" as="geometry" />
        </mxCell>
        <mxCell id="g7EFQU10GVxG23HX8EL0-166" value="ubah status barang" style="shape=parallelogram;perimeter=parallelogramPerimeter;whiteSpace=wrap;html=1;fixedSize=1;" vertex="1" parent="1">
          <mxGeometry x="-938.75" y="2080" width="187.5" height="60" as="geometry" />
        </mxCell>
        <mxCell id="g7EFQU10GVxG23HX8EL0-168" value="" style="endArrow=classic;html=1;rounded=0;" edge="1" parent="1">
          <mxGeometry width="50" height="50" relative="1" as="geometry">
            <mxPoint x="-950" y="2090" as="sourcePoint" />
            <mxPoint x="-890" y="2090" as="targetPoint" />
          </mxGeometry>
        </mxCell>
        <mxCell id="g7EFQU10GVxG23HX8EL0-169" value="" style="endArrow=classic;html=1;rounded=0;" edge="1" parent="1">
          <mxGeometry width="50" height="50" relative="1" as="geometry">
            <mxPoint x="-811.25" y="2020" as="sourcePoint" />
            <mxPoint x="-751.25" y="2020" as="targetPoint" />
          </mxGeometry>
        </mxCell>
        <mxCell id="g7EFQU10GVxG23HX8EL0-209" style="edgeStyle=orthogonalEdgeStyle;rounded=0;orthogonalLoop=1;jettySize=auto;html=1;" edge="1" parent="1" source="g7EFQU10GVxG23HX8EL0-171">
          <mxGeometry relative="1" as="geometry">
            <mxPoint x="-850" y="2295" as="targetPoint" />
            <Array as="points">
              <mxPoint x="-1100" y="2295" />
              <mxPoint x="-920" y="2295" />
            </Array>
          </mxGeometry>
        </mxCell>
        <mxCell id="g7EFQU10GVxG23HX8EL0-171" value="resi tidak di temukan" style="shape=parallelogram;perimeter=parallelogramPerimeter;whiteSpace=wrap;html=1;fixedSize=1;" vertex="1" parent="1">
          <mxGeometry x="-1170" y="1970" width="140" height="60" as="geometry" />
        </mxCell>
        <mxCell id="g7EFQU10GVxG23HX8EL0-175" value="" style="endArrow=classic;html=1;rounded=0;" edge="1" parent="1">
          <mxGeometry width="50" height="50" relative="1" as="geometry">
            <mxPoint x="-1080" y="2020" as="sourcePoint" />
            <mxPoint x="-1020" y="2020" as="targetPoint" />
          </mxGeometry>
        </mxCell>
        <mxCell id="g7EFQU10GVxG23HX8EL0-181" style="edgeStyle=orthogonalEdgeStyle;rounded=0;orthogonalLoop=1;jettySize=auto;html=1;" edge="1" parent="1" source="g7EFQU10GVxG23HX8EL0-176" target="g7EFQU10GVxG23HX8EL0-180">
          <mxGeometry relative="1" as="geometry" />
        </mxCell>
        <mxCell id="g7EFQU10GVxG23HX8EL0-182" value="True" style="edgeLabel;html=1;align=center;verticalAlign=middle;resizable=0;points=[];" vertex="1" connectable="0" parent="g7EFQU10GVxG23HX8EL0-181">
          <mxGeometry x="-0.2788" relative="1" as="geometry">
            <mxPoint as="offset" />
          </mxGeometry>
        </mxCell>
        <mxCell id="g7EFQU10GVxG23HX8EL0-185" style="edgeStyle=orthogonalEdgeStyle;rounded=0;orthogonalLoop=1;jettySize=auto;html=1;entryX=0.5;entryY=0;entryDx=0;entryDy=0;" edge="1" parent="1" source="g7EFQU10GVxG23HX8EL0-176" target="g7EFQU10GVxG23HX8EL0-184">
          <mxGeometry relative="1" as="geometry" />
        </mxCell>
        <mxCell id="g7EFQU10GVxG23HX8EL0-176" value="if pilih == &#39;4&#39;" style="rhombus;whiteSpace=wrap;html=1;" vertex="1" parent="1">
          <mxGeometry x="-1615" y="1640" width="80" height="80" as="geometry" />
        </mxCell>
        <mxCell id="g7EFQU10GVxG23HX8EL0-210" style="edgeStyle=orthogonalEdgeStyle;rounded=0;orthogonalLoop=1;jettySize=auto;html=1;entryX=0;entryY=0.5;entryDx=0;entryDy=0;" edge="1" parent="1" source="g7EFQU10GVxG23HX8EL0-180" target="g7EFQU10GVxG23HX8EL0-207">
          <mxGeometry relative="1" as="geometry">
            <mxPoint x="-1260" y="2460.9357010690787" as="targetPoint" />
            <Array as="points">
              <mxPoint x="-1400" y="2480" />
            </Array>
          </mxGeometry>
        </mxCell>
        <mxCell id="g7EFQU10GVxG23HX8EL0-180" value="EXIT" style="rounded=0;whiteSpace=wrap;html=1;" vertex="1" parent="1">
          <mxGeometry x="-1475" y="1730" width="120" height="60" as="geometry" />
        </mxCell>
        <mxCell id="g7EFQU10GVxG23HX8EL0-211" style="edgeStyle=orthogonalEdgeStyle;rounded=0;orthogonalLoop=1;jettySize=auto;html=1;" edge="1" parent="1" source="g7EFQU10GVxG23HX8EL0-184">
          <mxGeometry relative="1" as="geometry">
            <mxPoint x="-1400" y="2430" as="targetPoint" />
            <Array as="points">
              <mxPoint x="-1700" y="2430" />
            </Array>
          </mxGeometry>
        </mxCell>
        <mxCell id="g7EFQU10GVxG23HX8EL0-184" value="pilihan tidak di temukan" style="shape=parallelogram;perimeter=parallelogramPerimeter;whiteSpace=wrap;html=1;fixedSize=1;" vertex="1" parent="1">
          <mxGeometry x="-1765" y="1720" width="120" height="60" as="geometry" />
        </mxCell>
        <mxCell id="g7EFQU10GVxG23HX8EL0-193" style="edgeStyle=orthogonalEdgeStyle;rounded=0;orthogonalLoop=1;jettySize=auto;html=1;entryX=0.5;entryY=0;entryDx=0;entryDy=0;" edge="1" parent="1" source="g7EFQU10GVxG23HX8EL0-187" target="g7EFQU10GVxG23HX8EL0-191">
          <mxGeometry relative="1" as="geometry" />
        </mxCell>
        <mxCell id="g7EFQU10GVxG23HX8EL0-187" value="masukan user name dan password dan regiis sebagai apa" style="shape=parallelogram;perimeter=parallelogramPerimeter;whiteSpace=wrap;html=1;fixedSize=1;" vertex="1" parent="1">
          <mxGeometry x="-2160" y="550" width="360" height="70" as="geometry" />
        </mxCell>
        <mxCell id="g7EFQU10GVxG23HX8EL0-190" style="edgeStyle=orthogonalEdgeStyle;rounded=0;orthogonalLoop=1;jettySize=auto;html=1;entryX=0.5;entryY=0;entryDx=0;entryDy=0;" edge="1" parent="1" source="g7EFQU10GVxG23HX8EL0-188" target="g7EFQU10GVxG23HX8EL0-187">
          <mxGeometry relative="1" as="geometry" />
        </mxCell>
        <mxCell id="g7EFQU10GVxG23HX8EL0-192" value="True" style="edgeLabel;html=1;align=center;verticalAlign=middle;resizable=0;points=[];" vertex="1" connectable="0" parent="g7EFQU10GVxG23HX8EL0-190">
          <mxGeometry x="-0.3019" y="3" relative="1" as="geometry">
            <mxPoint y="3" as="offset" />
          </mxGeometry>
        </mxCell>
        <mxCell id="g7EFQU10GVxG23HX8EL0-204" style="edgeStyle=orthogonalEdgeStyle;rounded=0;orthogonalLoop=1;jettySize=auto;html=1;" edge="1" parent="1" source="g7EFQU10GVxG23HX8EL0-188" target="g7EFQU10GVxG23HX8EL0-203">
          <mxGeometry relative="1" as="geometry" />
        </mxCell>
        <mxCell id="g7EFQU10GVxG23HX8EL0-188" value="if pillih == &#39;2&#39;" style="rhombus;whiteSpace=wrap;html=1;" vertex="1" parent="1">
          <mxGeometry x="-2260" y="430" width="80" height="80" as="geometry" />
        </mxCell>
        <mxCell id="g7EFQU10GVxG23HX8EL0-197" style="edgeStyle=orthogonalEdgeStyle;rounded=0;orthogonalLoop=1;jettySize=auto;html=1;entryX=0.5;entryY=0;entryDx=0;entryDy=0;" edge="1" parent="1" source="g7EFQU10GVxG23HX8EL0-191" target="g7EFQU10GVxG23HX8EL0-196">
          <mxGeometry relative="1" as="geometry" />
        </mxCell>
        <mxCell id="g7EFQU10GVxG23HX8EL0-198" value="True" style="edgeLabel;html=1;align=center;verticalAlign=middle;resizable=0;points=[];" vertex="1" connectable="0" parent="g7EFQU10GVxG23HX8EL0-197">
          <mxGeometry x="-0.2193" relative="1" as="geometry">
            <mxPoint as="offset" />
          </mxGeometry>
        </mxCell>
        <mxCell id="g7EFQU10GVxG23HX8EL0-201" style="edgeStyle=orthogonalEdgeStyle;rounded=0;orthogonalLoop=1;jettySize=auto;html=1;entryX=0.5;entryY=0;entryDx=0;entryDy=0;" edge="1" parent="1" source="g7EFQU10GVxG23HX8EL0-191" target="g7EFQU10GVxG23HX8EL0-200">
          <mxGeometry relative="1" as="geometry" />
        </mxCell>
        <mxCell id="g7EFQU10GVxG23HX8EL0-202" value="False" style="edgeLabel;html=1;align=center;verticalAlign=middle;resizable=0;points=[];" vertex="1" connectable="0" parent="g7EFQU10GVxG23HX8EL0-201">
          <mxGeometry x="-0.3259" y="-1" relative="1" as="geometry">
            <mxPoint as="offset" />
          </mxGeometry>
        </mxCell>
        <mxCell id="g7EFQU10GVxG23HX8EL0-191" value="if role == &#39;admin&#39; or &lt;br&gt;&#39;user&#39;" style="rhombus;whiteSpace=wrap;html=1;" vertex="1" parent="1">
          <mxGeometry x="-2045" y="700" width="130" height="100" as="geometry" />
        </mxCell>
        <mxCell id="g7EFQU10GVxG23HX8EL0-212" style="edgeStyle=orthogonalEdgeStyle;rounded=0;orthogonalLoop=1;jettySize=auto;html=1;" edge="1" parent="1" source="g7EFQU10GVxG23HX8EL0-195">
          <mxGeometry relative="1" as="geometry">
            <mxPoint x="-1700" y="2390" as="targetPoint" />
            <Array as="points">
              <mxPoint x="-1790" y="2390" />
            </Array>
          </mxGeometry>
        </mxCell>
        <mxCell id="g7EFQU10GVxG23HX8EL0-195" value="Database" style="shape=cylinder3;whiteSpace=wrap;html=1;boundedLbl=1;backgroundOutline=1;size=15;" vertex="1" parent="1">
          <mxGeometry x="-1820" y="900" width="60" height="80" as="geometry" />
        </mxCell>
        <mxCell id="g7EFQU10GVxG23HX8EL0-196" value="simpan akun ke data" style="rounded=0;whiteSpace=wrap;html=1;" vertex="1" parent="1">
          <mxGeometry x="-1850" y="790" width="120" height="60" as="geometry" />
        </mxCell>
        <mxCell id="g7EFQU10GVxG23HX8EL0-199" style="edgeStyle=orthogonalEdgeStyle;rounded=0;orthogonalLoop=1;jettySize=auto;html=1;entryX=0.5;entryY=0;entryDx=0;entryDy=0;entryPerimeter=0;" edge="1" parent="1" source="g7EFQU10GVxG23HX8EL0-196" target="g7EFQU10GVxG23HX8EL0-195">
          <mxGeometry relative="1" as="geometry" />
        </mxCell>
        <mxCell id="g7EFQU10GVxG23HX8EL0-213" style="edgeStyle=orthogonalEdgeStyle;rounded=0;orthogonalLoop=1;jettySize=auto;html=1;" edge="1" parent="1" source="g7EFQU10GVxG23HX8EL0-200">
          <mxGeometry relative="1" as="geometry">
            <mxPoint x="-1790" y="2361" as="targetPoint" />
            <Array as="points">
              <mxPoint x="-2170" y="2361" />
            </Array>
          </mxGeometry>
        </mxCell>
        <mxCell id="g7EFQU10GVxG23HX8EL0-200" value="mohon pilih role dengan benar" style="shape=parallelogram;perimeter=parallelogramPerimeter;whiteSpace=wrap;html=1;fixedSize=1;" vertex="1" parent="1">
          <mxGeometry x="-2230" y="810" width="120" height="60" as="geometry" />
        </mxCell>
        <mxCell id="g7EFQU10GVxG23HX8EL0-214" style="edgeStyle=orthogonalEdgeStyle;rounded=0;orthogonalLoop=1;jettySize=auto;html=1;" edge="1" parent="1">
          <mxGeometry relative="1" as="geometry">
            <mxPoint x="-2174" y="2320" as="targetPoint" />
            <mxPoint x="-2404" y="580" as="sourcePoint" />
            <Array as="points">
              <mxPoint x="-2404" y="2320" />
            </Array>
          </mxGeometry>
        </mxCell>
        <mxCell id="g7EFQU10GVxG23HX8EL0-203" value="pilihan tidak di temukan" style="shape=parallelogram;perimeter=parallelogramPerimeter;whiteSpace=wrap;html=1;fixedSize=1;" vertex="1" parent="1">
          <mxGeometry x="-2470" y="520" width="120" height="60" as="geometry" />
        </mxCell>
        <mxCell id="g7EFQU10GVxG23HX8EL0-205" value="" style="endArrow=classic;html=1;rounded=0;" edge="1" parent="1">
          <mxGeometry width="50" height="50" relative="1" as="geometry">
            <mxPoint x="-2400" y="570" as="sourcePoint" />
            <mxPoint x="-2340" y="570" as="targetPoint" />
          </mxGeometry>
        </mxCell>
        <mxCell id="g7EFQU10GVxG23HX8EL0-207" value="end" style="rounded=1;whiteSpace=wrap;html=1;arcSize=50;" vertex="1" parent="1">
          <mxGeometry x="-905" y="2450" width="120" height="60" as="geometry" />
        </mxCell>
        <mxCell id="XLnedt-Zt8pmp2AXjg6e-3" style="edgeStyle=orthogonalEdgeStyle;rounded=0;orthogonalLoop=1;jettySize=auto;html=1;entryX=0.5;entryY=0;entryDx=0;entryDy=0;" edge="1" parent="1" source="XLnedt-Zt8pmp2AXjg6e-1" target="g7EFQU10GVxG23HX8EL0-176">
          <mxGeometry relative="1" as="geometry" />
        </mxCell>
        <mxCell id="XLnedt-Zt8pmp2AXjg6e-4" value="False" style="edgeLabel;html=1;align=center;verticalAlign=middle;resizable=0;points=[];" connectable="0" vertex="1" parent="XLnedt-Zt8pmp2AXjg6e-3">
          <mxGeometry x="-0.0761" y="-2" relative="1" as="geometry">
            <mxPoint as="offset" />
          </mxGeometry>
        </mxCell>
        <mxCell id="XLnedt-Zt8pmp2AXjg6e-7" style="edgeStyle=orthogonalEdgeStyle;rounded=0;orthogonalLoop=1;jettySize=auto;html=1;entryX=0.5;entryY=0;entryDx=0;entryDy=0;" edge="1" parent="1" source="XLnedt-Zt8pmp2AXjg6e-1" target="XLnedt-Zt8pmp2AXjg6e-5">
          <mxGeometry relative="1" as="geometry" />
        </mxCell>
        <mxCell id="XLnedt-Zt8pmp2AXjg6e-1" value="if pilih == &#39;3&#39;" style="rhombus;whiteSpace=wrap;html=1;" vertex="1" parent="1">
          <mxGeometry x="-1355" y="1580" width="80" height="80" as="geometry" />
        </mxCell>
        <mxCell id="XLnedt-Zt8pmp2AXjg6e-10" style="edgeStyle=orthogonalEdgeStyle;rounded=0;orthogonalLoop=1;jettySize=auto;html=1;" edge="1" parent="1" source="XLnedt-Zt8pmp2AXjg6e-5" target="XLnedt-Zt8pmp2AXjg6e-9">
          <mxGeometry relative="1" as="geometry" />
        </mxCell>
        <mxCell id="XLnedt-Zt8pmp2AXjg6e-5" value="input resi yang di hapus" style="shape=parallelogram;perimeter=parallelogramPerimeter;whiteSpace=wrap;html=1;fixedSize=1;" vertex="1" parent="1">
          <mxGeometry x="-1255" y="1660" width="120" height="60" as="geometry" />
        </mxCell>
        <mxCell id="XLnedt-Zt8pmp2AXjg6e-6" value="" style="endArrow=classic;html=1;rounded=0;" edge="1" parent="1">
          <mxGeometry width="50" height="50" relative="1" as="geometry">
            <mxPoint x="-1270" y="1679.17" as="sourcePoint" />
            <mxPoint x="-1220" y="1679.17" as="targetPoint" />
          </mxGeometry>
        </mxCell>
        <mxCell id="XLnedt-Zt8pmp2AXjg6e-12" style="edgeStyle=orthogonalEdgeStyle;rounded=0;orthogonalLoop=1;jettySize=auto;html=1;entryX=0.5;entryY=0;entryDx=0;entryDy=0;" edge="1" parent="1" source="XLnedt-Zt8pmp2AXjg6e-9" target="XLnedt-Zt8pmp2AXjg6e-11">
          <mxGeometry relative="1" as="geometry" />
        </mxCell>
        <mxCell id="XLnedt-Zt8pmp2AXjg6e-9" value="database" style="shape=cylinder3;whiteSpace=wrap;html=1;boundedLbl=1;backgroundOutline=1;size=15;" vertex="1" parent="1">
          <mxGeometry x="-1225" y="1760" width="60" height="80" as="geometry" />
        </mxCell>
        <mxCell id="XLnedt-Zt8pmp2AXjg6e-15" style="edgeStyle=orthogonalEdgeStyle;rounded=0;orthogonalLoop=1;jettySize=auto;html=1;entryX=0.5;entryY=0;entryDx=0;entryDy=0;" edge="1" parent="1" source="XLnedt-Zt8pmp2AXjg6e-11" target="XLnedt-Zt8pmp2AXjg6e-13">
          <mxGeometry relative="1" as="geometry" />
        </mxCell>
        <mxCell id="XLnedt-Zt8pmp2AXjg6e-11" value="menghapus data dengan resi yang di inputkan" style="rounded=0;whiteSpace=wrap;html=1;" vertex="1" parent="1">
          <mxGeometry x="-1255" y="1880" width="120" height="60" as="geometry" />
        </mxCell>
        <mxCell id="XLnedt-Zt8pmp2AXjg6e-16" style="edgeStyle=orthogonalEdgeStyle;rounded=0;orthogonalLoop=1;jettySize=auto;html=1;" edge="1" parent="1" source="XLnedt-Zt8pmp2AXjg6e-13">
          <mxGeometry relative="1" as="geometry">
            <mxPoint x="-1195" y="2480" as="targetPoint" />
          </mxGeometry>
        </mxCell>
        <mxCell id="XLnedt-Zt8pmp2AXjg6e-13" value="data berhasil di hapus" style="shape=parallelogram;perimeter=parallelogramPerimeter;whiteSpace=wrap;html=1;fixedSize=1;" vertex="1" parent="1">
          <mxGeometry x="-1265" y="2040" width="140" height="70" as="geometry" />
        </mxCell>
        <mxCell id="XLnedt-Zt8pmp2AXjg6e-14" value="" style="endArrow=classic;html=1;rounded=0;" edge="1" parent="1">
          <mxGeometry width="50" height="50" relative="1" as="geometry">
            <mxPoint x="-1185" y="2090" as="sourcePoint" />
            <mxPoint x="-1125" y="2090" as="targetPoint" />
          </mxGeometry>
        </mxCell>
      </root>
    </mxGraphModel>
  </diagram>
</mxfile>
